<svg xmlns="http://www.w3.org/2000/svg" width="1600" height="400" viewBox="0 0 1600 400">
  <rect width="1600" height="400" fill="#ffffff"/>
  <!-- Gear (abstract) -->
  <g transform="translate(180,200)">
    <circle cx="0" cy="0" r="70" fill="#6C63FF"/>
    <g fill="#3F3D56">
      <path d="M0,0 L0,-120 A120,120 0 0,1 0,-120" transform="rotate(0.0)" /><path d="M0,0 L0,-120 A120,120 0 0,1 0,-120" transform="rotate(36.0)" /><path d="M0,0 L0,-120 A120,120 0 0,1 0,-120" transform="rotate(72.0)" /><path d="M0,0 L0,-120 A120,120 0 0,1 0,-120" transform="rotate(108.0)" /><path d="M0,0 L0,-120 A120,120 0 0,1 0,-120" transform="rotate(144.0)" /><path d="M0,0 L0,-120 A120,120 0 0,1 0,-120" transform="rotate(180.0)" /><path d="M0,0 L0,-120 A120,120 0 0,1 0,-120" transform="rotate(216.0)" /><path d="M0,0 L0,-120 A120,120 0 0,1 0,-120" transform="rotate(252.0)" /><path d="M0,0 L0,-120 A120,120 0 0,1 0,-120" transform="rotate(288.0)" /><path d="M0,0 L0,-120 A120,120 0 0,1 0,-120" transform="rotate(324.0)" />
    </g>
    <circle cx="0" cy="0" r="45" fill="#ffffff"/>
  </g>
  <!-- Circuit lines -->
  <g stroke="#3F3D56" stroke-width="8" fill="none">
    <line x1="320" y1="170" x2="900" y2="170"/>
    <line x1="320" y1="230" x2="900" y2="230"/>
    <circle cx="620" cy="170" r="10" fill="#3F3D56"/>
    <circle cx="860" cy="170" r="10" fill="#3F3D56"/>
    <circle cx="620" cy="230" r="10" fill="#3F3D56"/>
    <circle cx="860" cy="230" r="10" fill="#3F3D56"/>
  </g>
  <!-- Text -->
  <g font-family="Montserrat, Arial, Helvetica, sans-serif" fill="#1a1a1a">
    <text x="980" y="195" font-size="92" font-weight="700">UseMe</text>
    <text x="980" y="275" font-size="78">Labs</text>
  </g>
</svg>